<svg xmlns="http://www.w3.org/2000/svg" width="1240" height="1240"><path d="M577 168.054c-.825.515-4.164 1.9-7.419 3.077-5.372 1.941-7.792 4.001-26.152 22.254C512.428 224.207 295 444.783 295 445.412c0 .305-16.312 17.007-36.25 37.116-55.869 56.35-80.157 81.564-83.173 86.346-4.407 6.987-5.883 13.414-5.331 23.208.29 5.146 1.126 9.75 2.087 11.5.882 1.605 2.536 4.825 3.676 7.155 1.14 2.33 2.954 4.708 4.032 5.285 1.077.577 1.959 1.719 1.959 2.538 0 .819 1.089 1.903 2.419 2.409 1.331.506 2.811 1.62 3.291 2.476.479.856 2.652 2.506 4.83 3.667l6.61 3.522c3.806 2.029 13.469 3.063 19.736 2.112 2.962-.449 8.362-2.21 12-3.913 6.145-2.878 11.136-7.648 70.32-67.215 35.038-35.265 63.726-64.42 63.75-64.789.024-.37 16.582-17.369 36.794-37.777a29993.12 29993.12 0 0072.819-73.828A66903.478 66903.478 0 01549.09 309.5c63.087-63.985 73.91-75.248 73.91-76.913 0-.873.394-1.587.875-1.587s1.881-3.132 3.112-6.96c3.934-12.234 2.53-24.728-3.838-34.164-6.57-9.735-18.195-19.044-25.492-20.412-2.023-.38-3.926-1.09-4.227-1.577-.725-1.173-14.509-1.032-16.43.167m104.5 83.403c-6.745 1.737-16.052 6.935-21.369 11.935-2.776 2.611-5.874 7.206-8.499 12.608-4.02 8.271-4.129 8.769-4.076 18.5.047 8.351.418 10.657 2.25 13.985 1.207 2.192 2.194 4.48 2.194 5.084 0 1.72 7.899 12.564 10.826 14.863 1.448 1.137 8.344 7.131 15.325 13.318 6.98 6.188 12.954 11.25 13.276 11.25.321 0 2.513 1.956 4.87 4.347 2.357 2.391 4.78 4.528 5.385 4.75.605.222 8.546 7.04 17.646 15.153 9.101 8.113 16.812 14.75 17.138 14.75.325 0 2.041 1.348 3.812 2.995 6.583 6.121 30.556 27.005 30.999 27.005.253 0 2.657 2.035 5.341 4.522 2.685 2.487 6.457 5.86 8.382 7.495 6.509 5.528 31.476 26.973 35 30.062a622.265 622.265 0 008 6.852c7.805 6.561 33.365 28.96 36.608 32.079 1.709 1.645 3.425 2.99 3.813 2.99.387 0 8.15 6.638 17.251 14.75 9.1 8.113 17.041 14.931 17.646 15.153.605.222 3.028 2.359 5.385 4.75 2.357 2.391 4.541 4.347 4.853 4.347.313 0 7.789 6.413 16.614 14.25 8.825 7.837 17.031 14.925 18.235 15.75 1.204.825 3.457 2.625 5.006 4 19.639 17.43 29.503 26 29.924 26 .281 0 1.802 1.237 3.38 2.75 7.816 7.492 21.015 16.891 26.378 18.783 7.207 2.543 17.466 2.935 25.407.971 6.593-1.63 15.561-6.463 18.449-9.942.713-.859 1.93-1.562 2.705-1.562.775 0 1.686-.788 2.025-1.75.339-.962 1.739-3.266 3.11-5.118 2.954-3.991 6.211-12.163 6.211-15.584 0-1.336.45-2.708 1-3.048 1.211-.749 1.343-11.713.157-13.05-.464-.522-1.627-3.525-2.585-6.672-.957-3.148-2.603-6.819-3.656-8.158-1.054-1.34-1.916-2.946-1.916-3.571 0-1.353-8.896-11.049-10.138-11.049-.475 0-2.551-1.73-4.613-3.844-2.062-2.114-4.262-4.026-4.89-4.25-.627-.223-8.587-7.044-17.687-15.156-9.101-8.113-16.887-14.75-17.304-14.75-.416 0-2.132-1.39-3.813-3.088-4.343-4.39-29.586-26.336-30.82-26.794-.565-.21-2.359-1.898-3.985-3.75-1.627-1.852-3.405-3.368-3.953-3.368-.547 0-2.863-1.959-5.146-4.354s-4.66-4.533-5.283-4.75c-1.2-.42-25.793-21.86-30.868-26.912-1.65-1.642-3.35-2.985-3.777-2.985-.427.001-2.227-1.323-4-2.941-1.773-1.617-9.748-8.637-17.723-15.598-7.975-6.962-16.182-14.188-18.237-16.059-2.056-1.87-3.989-3.401-4.297-3.401-.307 0-8.153-6.75-17.433-15-9.281-8.25-17.181-15-17.557-15-.375 0-2.323-1.554-4.329-3.454-3.234-3.063-36.854-32.414-44.647-38.978-1.65-1.39-9.148-7.936-16.662-14.547-7.514-6.612-13.965-12.021-14.336-12.021-.371 0-2.098-1.368-3.838-3.041C752.26 287.805 744.716 281 744.298 281c-.237 0-5.524-4.5-11.75-10-6.225-5.5-11.772-10-12.326-10-.554 0-1.267-.675-1.584-1.5-.316-.825-1.033-1.5-1.592-1.5-.559 0-3.16-1.312-5.781-2.915-7.756-4.746-19.746-6.207-29.765-3.628m-92 239.156c-10.24 1.008-28.102 3.703-29 4.377-.55.412-2.8 1.057-5 1.434-6.374 1.092-16.821 3.624-19 4.605-1.629.733-10.698 3.972-15 5.356-3.908 1.257-10.972 4.481-26.5 12.093-12.964 6.356-15.365 7.654-22.669 12.262-2.844 1.793-5.656 3.26-6.25 3.26-.595 0-1.081.438-1.081.974s-1.389 1.693-3.087 2.571c-8.078 4.177-27.627 20.077-40.461 32.909-7.727 7.726-15.278 15.621-16.78 17.546C395.013 600.379 388 609.973 388 610.811c0 .536-.675 1.234-1.5 1.551-.825.316-1.5 1.197-1.5 1.957 0 .759-1.415 3.334-3.144 5.722-2.927 4.039-19.653 36.499-24.507 47.558-1.183 2.696-2.925 7.601-3.871 10.901-.946 3.3-2.067 6.45-2.491 7-.425.55-1.538 3.925-2.473 7.5-.936 3.575-2.157 7.459-2.713 8.632-.557 1.172-2.019 7.922-3.249 15-1.231 7.077-2.516 13.543-2.857 14.368-3.546 8.586-3.364 80.161.225 88.5.474 1.1 1.817 7.812 2.986 14.916 1.168 7.104 2.482 13.404 2.918 14 .437.596 1.613 4.459 2.614 8.584 1 4.125 2.349 8.4 2.997 9.5.648 1.1 1.755 4.025 2.459 6.5 1.278 4.492 1.854 5.868 8.377 20 1.904 4.125 4.059 9.075 4.789 11 .729 1.925 1.652 3.728 2.05 4.007.398.28 2.611 4.105 4.919 8.5 2.308 4.396 5.647 10.243 7.421 12.993 1.773 2.75 3.508 5.788 3.856 6.75.347.962 1.095 1.75 1.663 1.75.567 0 1.031.487 1.031 1.082 0 1.831 15.96 22.452 25.051 32.365 13.578 14.807 38.216 35.512 48.699 40.926 1.788.923 3.25 2.117 3.25 2.653s.52.974 1.156.974c.635 0 2.548 1.061 4.25 2.358 1.702 1.297 4.894 3.28 7.094 4.407 16.116 8.256 34.105 17.2 34.628 17.216.345.01 2.37.774 4.5 1.696 2.13.922 4.322 1.808 4.872 1.968 2.659.776 13.233 4.53 15 5.326 2.179.981 12.626 3.513 19 4.605 2.2.377 4.45 1.026 5 1.442.55.417 6.4 1.594 13 2.615 17.384 2.691 69.616 2.691 87 0 6.6-1.021 12.45-2.198 13-2.615.55-.416 2.8-1.065 5-1.442 6.374-1.092 16.821-3.624 19-4.605 1.767-.796 12.341-4.55 15-5.326.55-.16 2.742-1.046 4.872-1.968 2.13-.922 4.087-1.677 4.349-1.677.563 0 26.548-12.914 33.812-16.805 2.769-1.482 7.806-4.607 11.195-6.945 3.389-2.337 6.421-4.25 6.738-4.25.317 0 4.279-2.85 8.805-6.334 4.526-3.483 10.479-8.015 13.229-10.069 6.589-4.923 30.09-28.204 32.653-32.347 1.105-1.788 2.438-3.25 2.96-3.25.522 0 1.231-.788 1.575-1.75.344-.962 3.088-4.836 6.099-8.609 3.011-3.772 6.124-8.159 6.917-9.75.793-1.59 1.86-2.891 2.369-2.891.51 0 .927-.486.927-1.081 0-.594 1.575-3.453 3.5-6.353s3.5-5.556 3.5-5.902c0-.346 1.7-3.449 3.777-6.896 3.846-6.382 7.93-14.499 12.713-25.268 1.466-3.3 3.51-7.8 4.542-10s2.632-6.475 3.555-9.5c.923-3.025 2.036-5.958 2.474-6.517.438-.559 1.794-5.284 3.013-10.5 1.219-5.216 2.554-9.933 2.966-10.483.412-.55 1.512-5.95 2.443-12 .932-6.05 2.086-11.9 2.565-13 1.623-3.726 2.952-23.756 2.952-44.5s-1.329-40.774-2.952-44.5c-.479-1.1-1.633-6.95-2.565-13-.931-6.05-2.022-11.45-2.424-12-.401-.55-1.763-5.275-3.026-10.5-1.262-5.225-2.627-9.95-3.032-10.5-.405-.55-1.491-3.475-2.414-6.5s-2.515-7.3-3.537-9.5a1607.41 1607.41 0 01-4.812-10.5c-6.563-14.45-13.322-27.206-19.959-37.669-1.803-2.844-3.279-5.656-3.279-6.25 0-.595-.464-1.081-1.031-1.081-.568 0-1.332-.788-1.7-1.75-.367-.962-3.391-5.266-6.719-9.564-3.327-4.298-6.5-8.511-7.05-9.363-7.441-11.529-36.519-38.737-54.5-50.996-17.421-11.877-21.938-14.526-39-22.865-15.664-7.657-22.636-10.834-26.5-12.077-4.302-1.384-13.371-4.623-15-5.356-2.002-.902-11.917-3.319-18.5-4.512-1.925-.348-4.4-1.039-5.5-1.534-5.723-2.577-24.996-4.245-52-4.5-15.4-.145-29.8-.087-32 .13m12.003 81.08c-4.398.22-8.425.829-8.95 1.354-.524.524-2.326.954-4.003.956-3.722.004-20.572 2.892-21.992 3.77-.562.348-1.706.732-2.54.854-3.84.559-16.656 4.931-17.839 6.085-.727.708-2.077 1.303-3 1.322-4.481.092-29.799 14.289-41.849 23.466-3.611 2.75-7.3 5.468-8.198 6.04-6.416 4.087-39.132 40.329-39.132 43.349 0 .646-.675 1.433-1.5 1.749-.825.317-1.5 1.101-1.5 1.742s-1.497 3.438-3.326 6.215c-2.931 4.452-5.203 8.904-12.707 24.905-1.032 2.2-2.631 6.475-3.554 9.5-.923 3.025-2.019 5.95-2.436 6.5-.418.55-1.541 4.6-2.497 9s-2.081 8.45-2.5 9c-1.166 1.531-3.772 23.504-4.446 37.5-.864 17.936 1.949 53.987 4.486 57.5.397.55 1.504 4.6 2.46 9s2.077 8.45 2.491 9c.415.55 1.563 3.7 2.551 7 .989 3.3 2.371 7.125 3.072 8.5.701 1.375 3.146 6.461 5.432 11.303 2.287 4.841 5.692 11.131 7.566 13.977 1.874 2.846 3.408 5.699 3.408 6.34s.675 1.425 1.5 1.742c.825.316 1.5 1.08 1.5 1.696 0 1.606 11.58 16.291 17.606 22.327 2.808 2.813 5.385 5.913 5.727 6.888.342.975 1.419 2.048 2.394 2.386.975.337 4.312 3.139 7.415 6.227 12.61 12.548 39.254 29.5 54.34 34.573 2.741.921 5.216 2.005 5.5 2.409.5.709 13.948 5.055 17.036 5.505.834.122 2.007.524 2.605.894 1.494.923 17.909 3.733 21.808 3.733 1.743 0 3.697.528 4.342 1.173 1.657 1.657 46.797 1.657 48.454 0 .645-.645 2.599-1.173 4.342-1.173 3.954 0 20.331-2.817 21.826-3.754.608-.381 1.555-.721 2.105-.755 1.865-.115 15.994-4.695 17-5.51.55-.446 3.715-1.75 7.032-2.898 7.545-2.611 16.022-6.979 24.602-12.677 3.649-2.423 6.936-4.406 7.304-4.406 1.461 0 21.683-16.786 29.834-24.765 8.096-7.925 24.728-28.231 24.728-30.19 0-.609.675-1.367 1.5-1.683.825-.317 1.5-1.101 1.5-1.742s1.462-3.433 3.25-6.203c2.834-4.393 6.607-11.642 12.711-24.417.92-1.925 2.492-6.2 3.493-9.5 1.002-3.3 2.195-6.479 2.652-7.065.457-.585 1.778-5.76 2.935-11.5 1.157-5.739 2.483-11.155 2.947-12.035 4.313-8.195 4.313-75.605 0-83.8-.464-.88-1.79-6.296-2.947-12.035-1.157-5.74-2.478-10.915-2.935-11.5-.457-.586-1.65-3.765-2.652-7.065-1.001-3.3-2.573-7.575-3.493-9.5-6.104-12.775-9.877-20.024-12.711-24.417-1.788-2.77-3.25-5.562-3.25-6.203s-.675-1.425-1.5-1.742c-.825-.316-1.5-1.107-1.5-1.758 0-4.157-36.031-41.773-48.063-50.177-11.073-7.734-20.588-13.522-25.937-15.778-3.025-1.276-5.755-2.686-6.066-3.133-.311-.448-3.236-1.75-6.5-2.895s-6.384-2.443-6.934-2.885c-1.01-.812-15.15-5.389-17-5.503-.55-.034-1.468-.356-2.041-.715-1.42-.891-18.232-3.787-22.009-3.791-1.677-.002-3.477-.41-4-.908-1.096-1.045-28.123-1.993-39.947-1.402" fill="undefined" fill-rule="evenodd"/></svg>